<?xml version="1.0"?>
<svg width="1271" height="1280" xmlns="http://www.w3.org/2000/svg" xmlns:svg="http://www.w3.org/2000/svg" preserveAspectRatio="xMidYMid meet">
 <metadata>Created by potrace 1.15, written by Peter Selinger 2001-2017</metadata>
 <g class="layer">
  <title>Layer 1</title>
  <g fill="#000000" id="svg_1" transform="translate(0 1280) scale(0.1 -0.1)">
   <path d="m6524.79199,10497.256607c-1193.890319,-62.45686 -2314.834184,-342.356119 -3355.536947,-837.384562c-902.104498,-429.101758 -1415.161234,-877.86586 -1575.643436,-1376.364128c-30.394356,-93.685289 -34.041679,-121.443894 -34.041679,-277.586043c0,-165.395017 2.431549,-180.430928 44.983647,-318.06734c59.572939,-196.623447 97.26194,-283.369085 121.577426,-282.212477c13.373517,1.156609 27.962808,-20.818953 46.199422,-71.709728c15.805065,-40.481298 34.041679,-74.022945 42.552099,-74.022945c8.51042,0 60.788713,55.517209 115.498554,124.913719c390.263536,481.149141 787.821718,862.829949 1232.795096,1182.053898c819.431849,586.400515 1730.046766,918.347158 2808.438532,1024.755141c258.959917,25.445387 899.67295,30.071821 1075.960217,6.939651c601.808257,-77.49277 1052.860506,-275.272826 1377.472232,-603.749643c109.419683,-111.034417 168.992622,-205.876315 222.486689,-358.548638c65.65181,-183.900753 81.456875,-312.284298 74.16223,-594.496775c-10.941968,-419.848889 -85.104198,-722.880319 -263.823014,-1079.115741c-142.245588,-282.212477 -319.748629,-518.160613 -564.119255,-749.482315c-538.587995,-508.907745 -1260.757904,-861.673341 -2093.563269,-1021.285315c-310.022435,-60.143643 -733.111876,-106.407983 -975.050953,-106.407983c-110.635457,0 -111.851232,0 -105.77236,26.601996c3.647323,13.879302 77.809552,371.271332 164.129525,794.590047c87.535746,423.318715 210.328946,1016.658881 273.549208,1318.533702c150.756008,722.880319 164.129525,795.746655 164.129525,914.877332c0,112.191026 -27.962808,215.129183 -74.16223,277.586043c-15.805065,20.818953 -42.552099,67.083294 -60.788713,102.938157c-37.689002,76.336162 -96.046166,133.009979 -168.992622,166.551626c-48.63097,20.818953 -75.378004,24.288779 -224.918237,23.13217c-158.050653,-1.156609 -184.797687,-4.626434 -365.948051,-49.734166c-244.370625,-58.987034 -795.116363,-234.791528 -795.116363,-252.140655c0,-3.469826 19.452388,-35.854864 44.983647,-70.553119c24.315485,-34.698255 57.14139,-100.62494 74.16223,-145.732672c27.962808,-76.336162 29.178582,-92.528681 23.099711,-244.044396c-3.647323,-102.938157 -20.668162,-239.417962 -44.983647,-373.584549c-27.962808,-160.768583 -460.778443,-2232.254426 -492.388574,-2358.324754l-6.078871,-24.288779l-137.382491,38.168081c-550.745738,156.142149 -1026.113472,379.367592 -1412.729686,663.893285c-52.278293,38.168081 -103.340812,70.553119 -110.635457,70.553119c-8.51042,0 -23.099711,-34.698255 -34.041679,-77.49277c-66.867584,-282.212477 -53.494067,-430.258366 53.494067,-593.340166c26.747034,-41.637906 66.867584,-104.094766 87.535746,-138.793021c170.208396,-276.429434 627.339516,-518.160613 1289.936486,-682.399021c92.398843,-23.13217 105.77236,-30.071821 105.77236,-52.047383c0,-13.879302 -150.756008,-737.91623 -334.33792,-1608.842439c-331.906372,-1579.927226 -396.342407,-1896.837958 -418.226344,-2091.148188c-15.805065,-130.696762 -1.215774,-202.406489 53.494067,-260.236915c21.883937,-23.13217 48.63097,-62.45686 59.572939,-87.902247c30.394356,-68.239902 88.751521,-119.130677 158.050653,-138.793021c142.245588,-40.481298 469.288863,-12.722694 752.564265,63.613468c230.997109,61.300251 592.082063,205.876315 592.082063,237.104745c0,9.252868 -13.373517,62.45686 -30.394356,117.974068c-57.14139,185.057362 -52.278293,303.03143 25.531259,709.001017c30.394356,154.98554 609.102902,2879.955192 620.044871,2915.810056c4.863097,16.192519 53.494067,19.662345 421.873667,25.445387c514.27251,8.09626 798.763686,34.698255 1212.126933,112.191026c985.992922,186.21397 1903.902485,611.845902 2668.624492,1241.040932c172.639944,141.106238 471.720411,433.728192 595.729385,580.617472c286.922724,341.199511 509.409413,739.072838 623.692193,1116.127213c93.614618,307.657864 128.872071,577.147647 120.361651,919.503766c-10.941968,434.8848 -79.025327,688.182064 -282.059627,1046.730702c-222.486689,390.933677 -464.425766,623.411987 -858.336625,821.192043c-576.276997,287.995519 -1461.360656,412.909238 -2527.594678,357.39203z" fill="black" id="svg_2"/>
  </g>
 </g>
</svg>